Coordinates
version=1
nRows=29
nColumns=24
inDegrees=yes

Units are S.I. units (second, meters, Newtons, ...)
Angles are in degrees.

endheader
time	pelvis_tilt	pelvis_list	pelvis_rotation	pelvis_tx	pelvis_ty	pelvis_tz	hip_flexion_r	hip_adduction_r	hip_rotation_r	knee_angle_r	ankle_angle_r	subtalar_angle_r	mtp_angle_r	hip_flexion_l	hip_adduction_l	hip_rotation_l	knee_angle_l	ankle_angle_l	subtalar_angle_l	mtp_angle_l	lumbar_extension	lumbar_bending	lumbar_rotation
      1.04966667	      3.40258567	     -5.65363921	      8.88184377	      0.54125129	      1.02837358	      0.27752104	     10.40764431	     11.63167878	     -4.01490572	    -21.97548069	     10.70434212	     -5.92637548	      4.31862384	     20.61950119	     -6.82707713	      1.94062276	    -58.68980045	      9.77381545	      0.29999142	      3.12830371	     -2.17369364	      4.27802227	     -1.23071590
      1.05383333	      3.45505474	     -5.51520163	      8.65749615	      0.54548907	      1.02958350	      0.27792135	      9.81554706	     11.56550277	     -3.80541977	    -21.53008309	     10.70011569	     -5.77280991	      4.32078669	     20.81660549	     -6.62047780	      1.75351003	    -57.59191437	      9.73172759	     -0.55410387	      3.01420559	     -2.31997597	      4.16319617	     -1.14664284
      1.05800000	      3.52080570	     -5.38488284	      8.45662502	      0.54974540	      1.03079140	      0.27828696	      9.20382514	     11.50044438	     -3.63588230	    -21.06522138	     10.74638440	     -5.56571047	      4.32724583	     20.98978044	     -6.42409791	      1.58362999	    -56.45606032	      9.61730278	     -1.42226916	      2.85901710	     -2.45374425	      4.02310382	     -0.94833688
      1.06216667	      3.55839299	     -5.25110128	      8.23434111	      0.55399023	      1.03188365	      0.27866683	      8.63737798	     11.42529703	     -3.44709033	    -20.63477355	     10.80011191	     -5.35100694	      4.33568971	     21.17575152	     -6.22976188	      1.39099264	    -55.29267303	      9.50080204	     -2.26949578	      2.69048171	     -2.56320245	      3.89162388	     -0.75239576
      1.06633333	      3.60579866	     -5.11493572	      8.01057855	      0.55822919	      1.03295216	      0.27901735	      8.06949196	     11.33841929	     -3.28117907	    -20.22213326	     10.86535048	     -5.06349724	      4.47687489	     21.33420693	     -6.03608256	      1.19640956	    -54.10076643	      9.44094625	     -3.03649478	     -0.14974583	     -2.69357893	      3.76623377	     -0.52517569
      1.07050000	      3.63299735	     -4.99329690	      7.79145354	      0.56247962	      1.03392221	      0.27937630	      7.51839471	     11.27225516	     -3.06824921	    -19.78824640	     10.90184525	     -4.92539204	      4.47886372	     21.50656726	     -5.85931709	      1.01058351	    -52.87767035	      9.26464177	     -3.83860929	     -0.19373058	     -2.78206793	      3.64529411	     -0.37679798
      1.07466667	      3.66942100	     -4.86775366	      7.55395057	      0.56672523	      1.03486784	      0.27973666	      6.96694858	     11.19777273	     -2.84715188	    -19.37701635	     10.93068948	     -4.74916791	      4.48259757	     21.64617018	     -5.68932784	      0.80596531	    -51.61676543	      9.07909863	     -4.57478750	     -0.25145697	     -2.89893763	      3.53830955	     -0.22005421
      1.07883333	      3.69173612	     -4.77402499	      7.35143118	      0.57097601	      1.03569300	      0.28004186	      6.43269392	     11.14817647	     -2.66576432	    -18.94896545	     10.97884435	     -4.57167153	      4.48905947	     21.81106204	     -5.53850421	      0.65431185	    -50.35266053	      8.85376327	     -5.27816447	     -0.34247631	     -2.97064164	      3.44078742	     -0.02073561
      1.08300000	      3.72376458	     -4.66366653	      7.12376972	      0.57523190	      1.03649619	      0.28037769	      5.89347439	     11.08208416	     -2.45562892	    -18.54222572	     11.02845812	     -4.40782178	      4.49720065	     21.93850789	     -5.38812238	      0.46483280	    -49.05281622	      8.62166131	     -5.90354601	     -0.44612693	     -3.06415269	      3.33283818	      0.14644100
      1.08716667	      3.70188312	     -4.57147146	      6.87125897	      0.57948283	      1.03713864	      0.28073207	      5.42996734	     11.02737190	     -2.21401772	    -18.16755056	     11.06001557	     -4.25538723	      4.50475151	     22.11762970	     -5.26016342	      0.26015261	    -47.74371458	      8.39232068	     -6.42909568	     -0.54161306	     -3.10665327	      3.25341303	      0.27951173
      1.09133333	      3.72641719	     -4.49482349	      6.66442097	      0.58375107	      1.03778692	      0.28101312	      4.90243482	     10.98884194	     -2.01777483	    -17.74903011	     11.10669347	     -4.11947759	      4.51714601	     22.24502982	     -5.13504860	      0.12224483	    -46.41917577	      8.12454350	     -6.95146241	     -0.68403974	     -3.17082092	      3.17550490	      0.47831594
      1.09550000	      3.72652428	     -4.42479062	      6.42668504	      0.58800941	      1.03832326	      0.28133374	      4.41789412	     10.95429664	     -1.78765908	    -17.36682305	     11.14948745	     -3.99310945	      4.53149322	     22.38776227	     -5.03124472	     -0.04768180	    -45.08515205	      7.86831405	     -7.35343056	     -0.83264845	     -3.22065863	      3.11274304	      0.63964012
      1.09966667	      3.71742403	     -4.37205096	      6.18860114	      0.59226930	      1.03878049	      0.28164840	      3.94665628	     10.93571736	     -1.54277715	    -16.98462260	     11.17784537	     -3.88504668	      4.54887119	     22.53495423	     -4.94518901	     -0.20237172	    -43.74238494	      7.61037032	     -7.67893378	     -0.99920448	     -3.25984606	      3.06813127	      0.80304957
      1.10383333	      3.70794390	     -4.31886361	      5.94181560	      0.59654284	      1.03918030	      0.28197550	      3.48012477	     10.91418470	     -1.29362795	    -16.61435018	     11.21853311	     -3.79074058	      4.56746658	     22.66969819	     -4.86725293	     -0.36892494	    -42.38620509	      7.35139005	     -7.91740204	     -1.15589772	     -3.29172402	      3.02175601	      0.95241247
      1.10800000	      3.66156074	     -4.29199236	      5.69159534	      0.60080714	      1.03943759	      0.28229605	      3.06532665	     10.91458063	     -1.03502267	    -16.25909586	     11.24890904	     -3.71158847	      4.59006210	     22.84744169	     -4.81152632	     -0.51168186	    -41.03798257	      7.09002055	     -8.08924074	     -1.32572277	     -3.28235054	      3.00133015	      1.11338203
      1.11216667	      3.63685464	     -4.26563149	      5.43669931	      0.60507118	      1.03967317	      0.28262596	      2.62960116	     10.91564416	     -0.76974313	    -15.91010953	     11.28532424	     -3.63526159	      4.61460626	     22.99015835	     -4.76501742	     -0.65758413	    -39.67980064	      6.84054822	     -8.17467706	     -1.48970114	     -3.29868173	      2.98578874	      1.26352601
      1.11633333	      3.56361459	     -4.25740921	      5.16295421	      0.60933481	      1.03976530	      0.28298171	      2.26625045	     10.92760103	     -0.49964806	    -15.60219460	     11.31484352	     -3.54021273	      4.63298784	     23.18357929	     -4.74511343	     -0.81746150	    -38.32980498	      6.59708210	     -8.14159988	     -1.59637981	     -3.26842201	      2.98384887	      1.35933141
      1.12050000	      3.53745952	     -4.24520364	      4.91238472	      0.61362346	      1.03989981	      0.28329627	      1.82841161	     10.93977905	     -0.21846790	    -15.24313856	     11.35226650	     -3.51501883	      4.66552179	     23.30958996	     -4.70887023	     -0.91983477	    -36.95762016	      6.34161095	     -8.16431574	     -1.77006809	     -3.27142260	      2.98054434	      1.57386508
      1.12466667	      3.45054802	     -4.25203424	      4.63099970	      0.61789025	      1.03986084	      0.28366166	      1.49244767	     10.96080939	      0.05265140	    -14.95962279	     11.39089118	     -3.42264865	      4.68612420	     23.50421538	     -4.71064160	     -1.06467905	    -35.60547480	      6.10623856	     -8.01510833	     -1.86195920	     -3.21931562	      2.99249513	      1.65307256
      1.12883333	      3.38528070	     -4.26817764	      4.36768347	      0.62217150	      1.03978897	      0.28400194	      1.11431348	     10.99735938	      0.35800946	    -14.63297005	     11.43220622	     -3.43335639	      4.73140959	     23.67060551	     -4.71086888	     -1.15304532	    -34.25496818	      5.88467685	     -7.91638600	     -2.04578313	     -3.17789685	      3.02060211	      1.89706252
      1.13300000	      3.32342964	     -4.28615131	      4.08871767	      0.62644995	      1.03970621	      0.28437227	      0.74488761	     11.03059964	      0.65716545	    -14.33464126	     11.46854676	     -3.40156723	      4.78462239	     23.82034641	     -4.72802085	     -1.26560572	    -32.89750407	      5.66897684	     -7.71879352	     -2.23368998	     -3.15499706	      3.04404069	      2.05842551
      1.13716667	      3.19451786	     -4.32390763	      3.79955771	      0.63072618	      1.03943613	      0.28475167	      0.47740561	     11.07373356	      0.92052511	    -14.09717351	     11.53260361	     -3.31515004	      4.81122656	     24.04842742	     -4.76760348	     -1.37849454	    -31.56373613	      5.45129152	     -7.47541450	     -2.31335627	     -3.04601791	      3.08239763	      2.11595846
      1.14133333	      3.09373739	     -4.35473888	      3.51169391	      0.63501157	      1.03919249	      0.28513538	      0.17032160	     11.10993023	      1.20219080	    -13.84352904	     11.60415562	     -3.24406129	      4.83717036	     24.23221940	     -4.80465157	     -1.48184216	    -30.22333872	      5.24250026	     -7.22910272	     -2.38339881	     -2.98168665	      3.12565604	      2.22179748
      1.14550000	      3.01391375	     -4.40095165	      3.22390525	      0.63929625	      1.03892998	      0.28553827	     -0.16960533	     11.16931080	      1.53860656	    -13.56689485	     11.64746840	     -3.27584201	      4.90077832	     24.38749413	     -4.86058325	     -1.55691405	    -28.89043033	      5.07932966	     -6.97322557	     -2.54369126	     -2.92394740	      3.17574850	      2.51578180
      1.14966667	      2.86853282	     -4.46768338	      2.95569623	      0.64359321	      1.03850658	      0.28588968	     -0.41431404	     11.23389815	      1.77579693	    -13.33548902	     11.73284938	     -3.15350920	      4.91838068	     24.62523455	     -4.92626672	     -1.59981096	    -27.58547440	      4.89925749	     -6.70383302	     -2.57964274	     -2.78416894	      3.25490129	      2.52568081
      1.15383333	      2.77251854	     -4.50991898	      2.63079456	      0.64787156	      1.03815547	      0.28636748	     -0.70591838	     11.28131789	      2.11260911	    -13.13546784	     11.81877662	     -3.16503300	      4.98242776	     24.77910192	     -5.00715429	     -1.73136585	    -26.26262076	      4.73293368	     -6.41567452	     -2.70863940	     -2.72705041	      3.29439638	      2.79131224
      1.15800000	      2.62842655	     -4.58453024	      2.36220376	      0.65218449	      1.03767249	      0.28673968	     -0.94619997	     11.35177431	      2.35307579	    -12.92019827	     11.90953408	     -3.03814035	      4.99986758	     25.00248353	     -5.08962685	     -1.75754309	    -24.97325136	      4.57077737	     -6.15083873	     -2.73801302	     -2.59589149	      3.38678698	      2.80304427
      1.16216667	      2.50123619	     -4.63213729	      2.03097637	      0.65646950	      1.03720761	      0.28722990	     -1.17865255	     11.39462057	      2.64856218	    -12.77792596	     12.03225415	     -2.97377945	      5.02979048	     25.18051457	     -5.18659165	     -1.90045619	    -23.66834338	      4.37626002	     -5.88756852	     -2.78721596	     -2.51044080	      3.42536038	      2.91674653
      1.16633333	      2.38516806	     -4.70486265	      1.72966523	      0.66077268	      1.03671742	      0.28768721	     -1.44340563	     11.46684921	      2.96299118	    -12.58637661	     12.12824472	     -2.94781172	      5.09458039	     25.35230866	     -5.29848576	     -1.98001599	    -22.39061187	      4.25816659	     -5.60769421	     -2.88751869	     -2.41599056	      3.50079104	      3.21249507
